<svg id="_x33_0" enable-background="new 0 0 64 64" height="512" viewBox="0 0 64 64" width="512" xmlns="http://www.w3.org/2000/svg"><g><path d="m60.532 31.225-.143-.199c-1.8-2.521-4.724-4.026-7.822-4.026-2.567 0-4.981 1-6.797 2.815l-1.77 1.771-1.771-1.771c-1.815-1.815-4.229-2.815-6.796-2.815-3.097 0-6.021 1.505-7.823 4.025l-.142.199c-1.574 2.203-2.419 4.791-2.46 7.494-.611-.332-1.008-.955-1.008-1.663v-2.055h-6v2.055c0 .778-.464 1.473-1.223 1.785-.725.306-1.55.144-2.102-.408l-1.456-1.456-4.243 4.244 1.455 1.456c.551.552.712 1.377.393 2.141-.297.718-.991 1.183-1.769 1.183h-2.055v2h-1c-1.654 0-3-1.346-3-3v-9c0-1.654 1.346-3 3-3h10c2.757 0 5-2.243 5-5v-4h13c2.757 0 5-2.243 5-5s-2.243-5-5-5c-.028 0-.054.008-.082.008.043-.334.082-.668.082-1.008 0-4.411-3.589-8-8-8-1.114 0-2.175.23-3.14.644-1.573-2.846-4.544-4.644-7.86-4.644-4.962 0-9 4.037-9 9 0 .698.089 1.383.245 2.053-2.953.373-5.245 2.895-5.245 5.947 0 3.309 2.691 6 6 6h12v4c0 1.654-1.346 3-3 3h-10c-2.757 0-5 2.243-5 5v9c0 2.757 2.243 5 5 5h1v2h2.055c.778 0 1.473.465 1.786 1.222.303.726.142 1.551-.409 2.103l-1.456 1.455 4.244 4.244 1.457-1.456c.55-.553 1.375-.714 2.14-.394.718.299 1.183.993 1.183 1.771v2.055h6v-2.055c0-.778.465-1.473 1.222-1.786.726-.303 1.551-.142 2.102.409l1.456 1.456 4.244-4.244-1.455-1.456c-.551-.552-.712-1.377-.393-2.141.256-.619.812-1.029 1.457-1.137l11.367 11.368 15.119-15.119c2.503-2.502 3.881-5.829 3.881-9.369 0-2.779-.854-5.442-2.468-7.701zm-57.532-13.225c0-2.206 1.794-4 4-4s4 1.794 4 4h2c0-2.846-1.993-5.23-4.656-5.843-.225-.694-.344-1.416-.344-2.157 0-3.859 3.14-7 7-7 2.597 0 4.922 1.419 6.138 3.662-1.686 1.296-2.845 3.242-3.088 5.465-1.746.429-3.05 1.996-3.05 3.873h2c0-1.103.897-2 2-2s2 .897 2 2h2c0-1.835-1.248-3.368-2.935-3.838.41-2.912 2.911-5.162 5.935-5.162 3.309 0 6 2.691 6 6 0 .526-.086 1.041-.22 1.543-1.64.821-2.78 2.501-2.78 4.457h2c0-1.654 1.346-3 3-3s3 1.346 3 3-1.346 3-3 3h-27c-2.206 0-4-1.794-4-4zm26.314 34.452c-.616 1.477-.286 3.159.84 4.286l.042.042-1.416 1.416-.042-.042c-1.128-1.128-2.811-1.458-4.319-.827-1.469.608-2.419 2.027-2.419 3.618v.055h-2v-.055c0-1.591-.95-3.011-2.452-3.632-1.479-.617-3.161-.286-4.287.841l-.042.042-1.416-1.416.042-.042c1.126-1.127 1.456-2.81.827-4.318-.606-1.47-2.026-2.42-3.617-2.42h-.055v-2h.055c1.591 0 3.011-.95 3.631-2.452.616-1.477.286-3.159-.84-4.286l-.042-.042 1.416-1.416.042.042c1.128 1.129 2.811 1.457 4.318.827 1.47-.606 2.42-2.027 2.42-3.618v-.055h2v.055c0 1.591.95 3.012 2.451 3.631 1.476.618 3.16.288 4.287-.84l.042-.042 1.416 1.416-.042.042c-1.126 1.127-1.456 2.81-.827 4.318.607 1.47 2.027 2.42 3.618 2.42h.055v2h-.055c-1.591 0-3.011.95-3.631 2.452zm28.391-5.571-13.705 13.705-9-9v-5.586h-2.055c-.778 0-1.473-.465-1.786-1.222-.303-.726-.142-1.551.409-2.103l1.455-1.456-4.244-4.244-1.457 1.456c-.094.094-.205.161-.314.232.052-2.263.766-4.429 2.086-6.277l.142-.199c1.428-1.996 3.743-3.187 6.197-3.187 2.033 0 3.945.792 5.383 2.229l3.184 3.185 3.185-3.185c1.438-1.437 3.349-2.229 5.382-2.229 2.453 0 4.769 1.191 6.195 3.188l.143.199c1.37 1.919 2.095 4.18 2.095 6.539 0 3.006-1.17 5.831-3.295 7.955z"/><path d="m57.277 33.55-.142-.2c-.305-.426-.668-.808-1.081-1.134l-1.241 1.568c.265.21.499.455.693.727l.142.199c.885 1.238 1.352 2.695 1.352 4.216 0 1.855-.743 3.637-2.149 5.153-1.262 1.36-3.454 3.123-3.476 3.141l1.251 1.561c.095-.076 2.329-1.872 3.692-3.342 1.754-1.892 2.682-4.145 2.682-6.513 0-1.94-.596-3.799-1.723-5.376z"/><path d="m52.905 33.016.19-1.99c-.175-.017-.351-.026-.528-.026-1.365 0-2.522.262-3.76 1.565l-1.559 1.774 1.503 1.32 1.532-1.746c.744-.781 1.306-.913 2.284-.913.114 0 .226.005.338.016z"/><path d="m21 46c-1.654 0-3 1.346-3 3s1.346 3 3 3 3-1.346 3-3-1.346-3-3-3zm0 4c-.551 0-1-.448-1-1s.449-1 1-1 1 .448 1 1-.449 1-1 1z"/><path d="m21 42c-3.86 0-7 3.141-7 7s3.14 7 7 7 7-3.141 7-7-3.14-7-7-7zm0 12c-2.757 0-5-2.243-5-5s2.243-5 5-5 5 2.243 5 5-2.243 5-5 5z"/></g></svg>